<mxfile host="app.diagrams.net" modified="2020-09-27T01:06:48.184Z" agent="5.0 (Windows NT 10.0; Win64; x64) AppleWebKit/537.36 (KHTML, like Gecko) Chrome/85.0.4183.121 Safari/537.36" etag="JDAVnQcaFCeWSwu39XVf" version="13.7.5" type="github">
  <diagram id="CMNNF_iN8LCqm6YEhbqh" name="Page-1">
    <mxGraphModel dx="607" dy="1705" grid="1" gridSize="10" guides="1" tooltips="1" connect="1" arrows="1" fold="1" page="1" pageScale="1" pageWidth="827" pageHeight="1169" math="0" shadow="0">
      <root>
        <mxCell id="0" />
        <mxCell id="1" parent="0" />
        <mxCell id="xpe-EQebToKwT1VYYYNh-7" value="" style="edgeStyle=orthogonalEdgeStyle;rounded=0;orthogonalLoop=1;jettySize=auto;html=1;" edge="1" parent="1" source="xpe-EQebToKwT1VYYYNh-1" target="xpe-EQebToKwT1VYYYNh-6">
          <mxGeometry relative="1" as="geometry" />
        </mxCell>
        <mxCell id="xpe-EQebToKwT1VYYYNh-1" value="관리자" style="shape=umlActor;verticalLabelPosition=bottom;verticalAlign=top;html=1;outlineConnect=0;" vertex="1" parent="1">
          <mxGeometry x="130" y="250" width="30" height="60" as="geometry" />
        </mxCell>
        <mxCell id="xpe-EQebToKwT1VYYYNh-16" value="" style="edgeStyle=orthogonalEdgeStyle;rounded=0;orthogonalLoop=1;jettySize=auto;html=1;" edge="1" parent="1" source="xpe-EQebToKwT1VYYYNh-3" target="xpe-EQebToKwT1VYYYNh-15">
          <mxGeometry relative="1" as="geometry" />
        </mxCell>
        <mxCell id="xpe-EQebToKwT1VYYYNh-3" value="사용자" style="shape=umlActor;verticalLabelPosition=bottom;verticalAlign=top;html=1;outlineConnect=0;" vertex="1" parent="1">
          <mxGeometry x="620" y="230" width="30" height="60" as="geometry" />
        </mxCell>
        <mxCell id="xpe-EQebToKwT1VYYYNh-6" value="&lt;font style=&quot;font-size: 17px&quot;&gt;시스템&lt;/font&gt;" style="ellipse;whiteSpace=wrap;html=1;" vertex="1" parent="1">
          <mxGeometry x="230" y="250" width="100" height="60" as="geometry" />
        </mxCell>
        <mxCell id="xpe-EQebToKwT1VYYYNh-9" value="&lt;span style=&quot;font-size: 17px&quot;&gt;권한설정&lt;/span&gt;" style="ellipse;whiteSpace=wrap;html=1;" vertex="1" parent="1">
          <mxGeometry x="414" y="160" width="100" height="60" as="geometry" />
        </mxCell>
        <mxCell id="xpe-EQebToKwT1VYYYNh-10" value="&lt;font style=&quot;font-size: 17px&quot;&gt;사용자관리&lt;/font&gt;" style="ellipse;whiteSpace=wrap;html=1;" vertex="1" parent="1">
          <mxGeometry x="414" y="100" width="100" height="60" as="geometry" />
        </mxCell>
        <mxCell id="xpe-EQebToKwT1VYYYNh-11" value="&lt;span style=&quot;font-size: 17px&quot;&gt;vendor 관리&lt;/span&gt;" style="ellipse;whiteSpace=wrap;html=1;" vertex="1" parent="1">
          <mxGeometry x="414" y="220" width="100" height="60" as="geometry" />
        </mxCell>
        <mxCell id="xpe-EQebToKwT1VYYYNh-12" value="&lt;font style=&quot;font-size: 17px&quot;&gt;model 관리&lt;/font&gt;" style="ellipse;whiteSpace=wrap;html=1;" vertex="1" parent="1">
          <mxGeometry x="414" y="280" width="100" height="60" as="geometry" />
        </mxCell>
        <mxCell id="xpe-EQebToKwT1VYYYNh-13" value="&lt;span style=&quot;font-size: 17px&quot;&gt;담당/팀 관리&lt;/span&gt;" style="ellipse;whiteSpace=wrap;html=1;" vertex="1" parent="1">
          <mxGeometry x="414" y="400" width="100" height="60" as="geometry" />
        </mxCell>
        <mxCell id="xpe-EQebToKwT1VYYYNh-14" value="&lt;font style=&quot;font-size: 17px&quot;&gt;게시판 관리&lt;/font&gt;" style="ellipse;whiteSpace=wrap;html=1;" vertex="1" parent="1">
          <mxGeometry x="414" y="340" width="100" height="60" as="geometry" />
        </mxCell>
        <mxCell id="xpe-EQebToKwT1VYYYNh-15" value="&lt;font style=&quot;font-size: 17px&quot;&gt;시스템&lt;/font&gt;" style="ellipse;whiteSpace=wrap;html=1;" vertex="1" parent="1">
          <mxGeometry x="727" y="230" width="100" height="60" as="geometry" />
        </mxCell>
        <mxCell id="xpe-EQebToKwT1VYYYNh-19" value="&lt;span style=&quot;font-size: 17px&quot;&gt;구성&lt;/span&gt;" style="ellipse;whiteSpace=wrap;html=1;" vertex="1" parent="1">
          <mxGeometry x="950" y="80" width="100" height="60" as="geometry" />
        </mxCell>
        <mxCell id="xpe-EQebToKwT1VYYYNh-20" value="&lt;font style=&quot;font-size: 17px&quot;&gt;대시보드&lt;/font&gt;" style="ellipse;whiteSpace=wrap;html=1;" vertex="1" parent="1">
          <mxGeometry x="950" y="-50" width="100" height="60" as="geometry" />
        </mxCell>
        <mxCell id="xpe-EQebToKwT1VYYYNh-21" value="&lt;span style=&quot;font-size: 17px&quot;&gt;장애&lt;/span&gt;" style="ellipse;whiteSpace=wrap;html=1;" vertex="1" parent="1">
          <mxGeometry x="950" y="180" width="100" height="60" as="geometry" />
        </mxCell>
        <mxCell id="xpe-EQebToKwT1VYYYNh-22" value="&lt;span style=&quot;font-size: 17px&quot;&gt;분석&lt;/span&gt;" style="ellipse;whiteSpace=wrap;html=1;" vertex="1" parent="1">
          <mxGeometry x="950" y="330" width="100" height="60" as="geometry" />
        </mxCell>
        <mxCell id="xpe-EQebToKwT1VYYYNh-43" value="" style="edgeStyle=orthogonalEdgeStyle;rounded=0;orthogonalLoop=1;jettySize=auto;html=1;entryX=0;entryY=0.5;entryDx=0;entryDy=0;" edge="1" parent="1" source="xpe-EQebToKwT1VYYYNh-23" target="xpe-EQebToKwT1VYYYNh-41">
          <mxGeometry relative="1" as="geometry">
            <mxPoint x="1130" y="470" as="targetPoint" />
          </mxGeometry>
        </mxCell>
        <mxCell id="xpe-EQebToKwT1VYYYNh-23" value="&lt;span style=&quot;font-size: 17px&quot;&gt;시스템&lt;/span&gt;" style="ellipse;whiteSpace=wrap;html=1;" vertex="1" parent="1">
          <mxGeometry x="950" y="440" width="100" height="60" as="geometry" />
        </mxCell>
        <mxCell id="xpe-EQebToKwT1VYYYNh-27" value="&lt;span style=&quot;font-size: 17px&quot;&gt;망구성도&lt;/span&gt;" style="ellipse;whiteSpace=wrap;html=1;" vertex="1" parent="1">
          <mxGeometry x="1260" y="-80" width="100" height="40" as="geometry" />
        </mxCell>
        <mxCell id="xpe-EQebToKwT1VYYYNh-28" value="&lt;span style=&quot;font-size: 17px&quot;&gt;예측트래픽&lt;/span&gt;" style="ellipse;whiteSpace=wrap;html=1;" vertex="1" parent="1">
          <mxGeometry x="1260" y="-120" width="100" height="40" as="geometry" />
        </mxCell>
        <mxCell id="xpe-EQebToKwT1VYYYNh-29" value="&lt;span style=&quot;font-size: 17px&quot;&gt;장애리스트&lt;/span&gt;" style="ellipse;whiteSpace=wrap;html=1;" vertex="1" parent="1">
          <mxGeometry x="1260" y="-40" width="100" height="40" as="geometry" />
        </mxCell>
        <mxCell id="xpe-EQebToKwT1VYYYNh-30" value="&lt;span style=&quot;font-size: 17px&quot;&gt;성능정보&lt;/span&gt;" style="ellipse;whiteSpace=wrap;html=1;" vertex="1" parent="1">
          <mxGeometry x="1260" width="100" height="40" as="geometry" />
        </mxCell>
        <mxCell id="xpe-EQebToKwT1VYYYNh-32" value="&lt;span style=&quot;font-size: 17px&quot;&gt;장비관리&lt;/span&gt;" style="ellipse;whiteSpace=wrap;html=1;" vertex="1" parent="1">
          <mxGeometry x="1260" y="60" width="100" height="40" as="geometry" />
        </mxCell>
        <mxCell id="xpe-EQebToKwT1VYYYNh-33" value="&lt;font style=&quot;font-size: 12px&quot;&gt;인터페이스관리&lt;/font&gt;" style="ellipse;whiteSpace=wrap;html=1;" vertex="1" parent="1">
          <mxGeometry x="1260" y="100" width="100" height="40" as="geometry" />
        </mxCell>
        <mxCell id="xpe-EQebToKwT1VYYYNh-34" value="&lt;span style=&quot;font-size: 17px&quot;&gt;현재 장애&lt;/span&gt;" style="ellipse;whiteSpace=wrap;html=1;" vertex="1" parent="1">
          <mxGeometry x="1260" y="150" width="100" height="40" as="geometry" />
        </mxCell>
        <mxCell id="xpe-EQebToKwT1VYYYNh-35" value="&lt;span style=&quot;font-size: 17px&quot;&gt;장애 이력&lt;/span&gt;" style="ellipse;whiteSpace=wrap;html=1;" vertex="1" parent="1">
          <mxGeometry x="1260" y="190" width="100" height="40" as="geometry" />
        </mxCell>
        <mxCell id="xpe-EQebToKwT1VYYYNh-36" value="&lt;span style=&quot;font-size: 17px&quot;&gt;임계치 설정&lt;/span&gt;" style="ellipse;whiteSpace=wrap;html=1;" vertex="1" parent="1">
          <mxGeometry x="1260" y="230" width="100" height="40" as="geometry" />
        </mxCell>
        <mxCell id="xpe-EQebToKwT1VYYYNh-38" value="&lt;span style=&quot;font-size: 17px&quot;&gt;현재 성능&lt;/span&gt;" style="ellipse;whiteSpace=wrap;html=1;" vertex="1" parent="1">
          <mxGeometry x="1260" y="300" width="100" height="40" as="geometry" />
        </mxCell>
        <mxCell id="xpe-EQebToKwT1VYYYNh-39" value="&lt;span style=&quot;font-size: 17px&quot;&gt;성능 이력&lt;/span&gt;" style="ellipse;whiteSpace=wrap;html=1;" vertex="1" parent="1">
          <mxGeometry x="1260" y="340" width="100" height="40" as="geometry" />
        </mxCell>
        <mxCell id="xpe-EQebToKwT1VYYYNh-40" value="&lt;span style=&quot;font-size: 17px&quot;&gt;트래픽 예측&lt;/span&gt;" style="ellipse;whiteSpace=wrap;html=1;" vertex="1" parent="1">
          <mxGeometry x="1260" y="380" width="100" height="40" as="geometry" />
        </mxCell>
        <mxCell id="xpe-EQebToKwT1VYYYNh-41" value="&lt;span style=&quot;font-size: 17px&quot;&gt;게시판&lt;/span&gt;" style="ellipse;whiteSpace=wrap;html=1;" vertex="1" parent="1">
          <mxGeometry x="1260" y="450" width="100" height="40" as="geometry" />
        </mxCell>
        <mxCell id="xpe-EQebToKwT1VYYYNh-44" value="" style="edgeStyle=orthogonalEdgeStyle;rounded=0;orthogonalLoop=1;jettySize=auto;html=1;entryX=0;entryY=0.5;entryDx=0;entryDy=0;" edge="1" parent="1">
          <mxGeometry relative="1" as="geometry">
            <mxPoint x="1050" y="359.29" as="sourcePoint" />
            <mxPoint x="1260.000000000008" y="359.29" as="targetPoint" />
          </mxGeometry>
        </mxCell>
        <mxCell id="xpe-EQebToKwT1VYYYNh-45" value="" style="edgeStyle=orthogonalEdgeStyle;rounded=0;orthogonalLoop=1;jettySize=auto;html=1;entryX=0;entryY=0.5;entryDx=0;entryDy=0;" edge="1" parent="1">
          <mxGeometry relative="1" as="geometry">
            <mxPoint x="1050" y="209.29000000000002" as="sourcePoint" />
            <mxPoint x="1260.000000000008" y="209.29000000000002" as="targetPoint" />
          </mxGeometry>
        </mxCell>
        <mxCell id="xpe-EQebToKwT1VYYYNh-48" value="" style="endArrow=classic;html=1;" edge="1" parent="1">
          <mxGeometry width="50" height="50" relative="1" as="geometry">
            <mxPoint x="820" y="230" as="sourcePoint" />
            <mxPoint x="940" as="targetPoint" />
          </mxGeometry>
        </mxCell>
        <mxCell id="xpe-EQebToKwT1VYYYNh-49" value="" style="endArrow=classic;html=1;" edge="1" parent="1">
          <mxGeometry width="50" height="50" relative="1" as="geometry">
            <mxPoint x="830" y="270" as="sourcePoint" />
            <mxPoint x="920" y="460" as="targetPoint" />
          </mxGeometry>
        </mxCell>
        <mxCell id="xpe-EQebToKwT1VYYYNh-50" value="" style="endArrow=classic;html=1;" edge="1" parent="1">
          <mxGeometry width="50" height="50" relative="1" as="geometry">
            <mxPoint x="830" y="260" as="sourcePoint" />
            <mxPoint x="930" y="350" as="targetPoint" />
          </mxGeometry>
        </mxCell>
        <mxCell id="xpe-EQebToKwT1VYYYNh-51" value="" style="endArrow=classic;html=1;" edge="1" parent="1">
          <mxGeometry width="50" height="50" relative="1" as="geometry">
            <mxPoint x="830" y="240" as="sourcePoint" />
            <mxPoint x="940" y="220" as="targetPoint" />
          </mxGeometry>
        </mxCell>
        <mxCell id="xpe-EQebToKwT1VYYYNh-52" value="" style="endArrow=classic;html=1;" edge="1" parent="1">
          <mxGeometry width="50" height="50" relative="1" as="geometry">
            <mxPoint x="830" y="240" as="sourcePoint" />
            <mxPoint x="940" y="120" as="targetPoint" />
          </mxGeometry>
        </mxCell>
        <mxCell id="xpe-EQebToKwT1VYYYNh-54" value="" style="endArrow=classic;html=1;exitX=1.047;exitY=0.314;exitDx=0;exitDy=0;exitPerimeter=0;" edge="1" parent="1" source="xpe-EQebToKwT1VYYYNh-21">
          <mxGeometry width="50" height="50" relative="1" as="geometry">
            <mxPoint x="1050" y="210" as="sourcePoint" />
            <mxPoint x="1250" y="170" as="targetPoint" />
          </mxGeometry>
        </mxCell>
        <mxCell id="xpe-EQebToKwT1VYYYNh-56" value="" style="endArrow=classic;html=1;entryX=0;entryY=0.5;entryDx=0;entryDy=0;exitX=1;exitY=0.667;exitDx=0;exitDy=0;exitPerimeter=0;" edge="1" parent="1" source="xpe-EQebToKwT1VYYYNh-21" target="xpe-EQebToKwT1VYYYNh-36">
          <mxGeometry width="50" height="50" relative="1" as="geometry">
            <mxPoint x="1060" y="220" as="sourcePoint" />
            <mxPoint x="1260" y="180" as="targetPoint" />
          </mxGeometry>
        </mxCell>
        <mxCell id="xpe-EQebToKwT1VYYYNh-57" value="" style="endArrow=classic;html=1;entryX=0.004;entryY=0.814;entryDx=0;entryDy=0;exitX=1;exitY=0.667;exitDx=0;exitDy=0;exitPerimeter=0;entryPerimeter=0;" edge="1" parent="1" target="xpe-EQebToKwT1VYYYNh-33">
          <mxGeometry width="50" height="50" relative="1" as="geometry">
            <mxPoint x="1050" y="115.00999999999998" as="sourcePoint" />
            <mxPoint x="1260.000000000008" y="144.99" as="targetPoint" />
          </mxGeometry>
        </mxCell>
        <mxCell id="xpe-EQebToKwT1VYYYNh-58" value="" style="endArrow=classic;html=1;entryX=0;entryY=0.5;entryDx=0;entryDy=0;exitX=0.99;exitY=0.343;exitDx=0;exitDy=0;exitPerimeter=0;" edge="1" parent="1" source="xpe-EQebToKwT1VYYYNh-19" target="xpe-EQebToKwT1VYYYNh-32">
          <mxGeometry width="50" height="50" relative="1" as="geometry">
            <mxPoint x="1060" y="100" as="sourcePoint" />
            <mxPoint x="1270.3999999999999" y="142.55999999999995" as="targetPoint" />
          </mxGeometry>
        </mxCell>
        <mxCell id="xpe-EQebToKwT1VYYYNh-59" value="" style="endArrow=classic;html=1;entryX=0;entryY=0.5;entryDx=0;entryDy=0;exitX=0.99;exitY=0.343;exitDx=0;exitDy=0;exitPerimeter=0;" edge="1" parent="1">
          <mxGeometry width="50" height="50" relative="1" as="geometry">
            <mxPoint x="1048.9999999999998" y="-29.420000000000073" as="sourcePoint" />
            <mxPoint x="1260.000000000008" y="-50" as="targetPoint" />
          </mxGeometry>
        </mxCell>
        <mxCell id="xpe-EQebToKwT1VYYYNh-60" value="" style="endArrow=classic;html=1;exitX=0.99;exitY=0.343;exitDx=0;exitDy=0;exitPerimeter=0;" edge="1" parent="1">
          <mxGeometry width="50" height="50" relative="1" as="geometry">
            <mxPoint x="1058.9999999999998" y="-19.420000000000073" as="sourcePoint" />
            <mxPoint x="1250" y="-19" as="targetPoint" />
          </mxGeometry>
        </mxCell>
        <mxCell id="xpe-EQebToKwT1VYYYNh-61" value="" style="endArrow=classic;html=1;exitX=0.99;exitY=0.343;exitDx=0;exitDy=0;exitPerimeter=0;" edge="1" parent="1">
          <mxGeometry width="50" height="50" relative="1" as="geometry">
            <mxPoint x="1068.9999999999998" y="-9.420000000000073" as="sourcePoint" />
            <mxPoint x="1250" y="20" as="targetPoint" />
          </mxGeometry>
        </mxCell>
        <mxCell id="xpe-EQebToKwT1VYYYNh-62" value="" style="endArrow=classic;html=1;exitX=0.99;exitY=0.343;exitDx=0;exitDy=0;exitPerimeter=0;" edge="1" parent="1">
          <mxGeometry width="50" height="50" relative="1" as="geometry">
            <mxPoint x="1039.9999999999998" y="-40.00000000000007" as="sourcePoint" />
            <mxPoint x="1251" y="-90" as="targetPoint" />
          </mxGeometry>
        </mxCell>
        <mxCell id="xpe-EQebToKwT1VYYYNh-63" value="" style="endArrow=classic;html=1;exitX=1.047;exitY=0.314;exitDx=0;exitDy=0;exitPerimeter=0;" edge="1" parent="1">
          <mxGeometry width="50" height="50" relative="1" as="geometry">
            <mxPoint x="1049.9999999999998" y="348.84000000000015" as="sourcePoint" />
            <mxPoint x="1245.3" y="320" as="targetPoint" />
          </mxGeometry>
        </mxCell>
        <mxCell id="xpe-EQebToKwT1VYYYNh-64" value="" style="endArrow=classic;html=1;exitX=1.047;exitY=0.314;exitDx=0;exitDy=0;exitPerimeter=0;" edge="1" parent="1">
          <mxGeometry width="50" height="50" relative="1" as="geometry">
            <mxPoint x="1060" y="358.84000000000015" as="sourcePoint" />
            <mxPoint x="1255" y="400" as="targetPoint" />
          </mxGeometry>
        </mxCell>
      </root>
    </mxGraphModel>
  </diagram>
</mxfile>
